<svg viewBox="0 0 559.4514145141452 340.69" xmlns="http://www.w3.org/2000/svg" data-name="Layer 1" id="Layer_1" style="max-height: 500px" width="559.4514145141452" height="340.69"><title>Leica Biosystems logo - Brandlogos.net</title><path style="fill:#ed1b2f" transform="translate(-107 -213.66)" d="M432.51,283.07a13.39,13.39,0,0,1,.62,13.61c-4.63,8.36-15.14,10.22-23.84,9.6a21.47,21.47,0,0,1-16-8.08,14.69,14.69,0,0,1,0-15.48,23.56,23.56,0,0,1,22.6-8.36A26.78,26.78,0,0,1,432.51,283.07Z"/><path style="fill:#ed1b2f" transform="translate(-107 -213.66)" d="M649.7,382.66c-5.65,3.11-13.9,7.74-20.39,2.82a8.59,8.59,0,0,1-1.86-6.21l15.76-56c-11.3-.34-23.22-.62-35-.34l-2.77,8.7a32,32,0,0,0-5.65-6.21c-12-8.64-29.37-5.65-42.08-.62-19.15,9.32-34.29,26.94-34.63,49.2-10.17,9-23.44,19-38,13.39-7.12-4-6.78-13.61-5.65-21.07,2.15-11.75,5.65-24.74,17.62-30,7.74-3.39,15.14,1.53,20.73,6.5a146.36,146.36,0,0,0,4.35-16.1c-15.82-10.22-40.22-7.12-55.7,1.86s-29.71,26.32-28.24,46.72a42.42,42.42,0,0,1-9.6,6.84c-5.25,2.43-13,6.78-18.58,1.53a11.3,11.3,0,0,1-1.53-6.5c5-18.25,10.22-36.83,15.14-55.08-13,0-26.61-.34-39,.34L370.43,371.3a108.51,108.51,0,0,1-34.34,15.14c-11.75,2.82-26.89,5.25-36.77-2.77a13.22,13.22,0,0,1-2.82-11.75c20.73,1.86,43.33-1,56.49-16.1a23.72,23.72,0,0,0,3.39-21.35l-3.05-5c-16.1-14.52-44.57-11.3-63.44-4.29A52.87,52.87,0,0,0,256,371.58a34.57,34.57,0,0,0,16.95,27.57c30.62,17.91,68.69,3.39,96-11.3,0,0,.9.62.62.9A24.18,24.18,0,0,0,387.2,407c21.07,3.11,39.94-5.65,55.7-18.25,6.5,12.09,20.45,18.25,34.34,19.49V408c19.21.62,35.31-8.36,49.2-20.11a38.86,38.86,0,0,0,20.11,18.53,45.19,45.19,0,0,0,45.19-11.3A24.57,24.57,0,0,0,601,405.87c18.3,8.7,37.79-2.15,51.69-11.3A37.23,37.23,0,0,0,649.7,382.66ZM314.05,332.27c4.91-1.86,13.56-3.73,16,2.77a22,22,0,0,1-8.93,21.35,33.33,33.33,0,0,1-22.6,4C302,350.18,305.07,339,314.05,332.27ZM591.52,375a24.4,24.4,0,0,1-16,15.14,11,11,0,0,1-10.22-4.63c-4.63-12.71,1.86-25.08,5.65-36.55A28.24,28.24,0,0,1,585.7,335a11.75,11.75,0,0,1,12.09,5.25C602.09,352.66,594.35,363.79,591.52,375Z"/><path style="fill:#ed1b2f" transform="translate(-107 -213.66)" d="M657.78,416.72a755.36,755.36,0,0,1-96,16.1,1444.35,1444.35,0,0,1-193.36,1.24A666.56,666.56,0,0,1,216.16,404c16.1-23.5,22-51.63,30.67-79.08a94.11,94.11,0,0,0,66.83-45.81c6.78-13.9,13.61-32.2,5.65-48a38.58,38.58,0,0,0-10.56-11.52c-15.76-10.22-37.9-6.16-52.59,3.39-34.63,18.25-39.88,57.28-49.82,90.38a119,119,0,0,1-30-5.08,35,35,0,0,0-4,10.85,113.82,113.82,0,0,0,30.73,7.51,404.06,404.06,0,0,1-17.68,56c-2.15,3.73-2.43,9-6.16,11.81-19.49-4.63-44.85-11.3-63.44,0A20.62,20.62,0,0,0,107,412.37a26.83,26.83,0,0,0,15.48,21.07c26.32,12.65,58,3.73,79.82-12.14,16.95,5.65,33.1,11.75,50.16,16.95,52.25,13.9,106.08,26.27,163.82,24.46V463a988,988,0,0,0,243.46-33.1L661,429ZM271.35,245.33c4-6.5,10.17-14.24,18.87-14.86,3.73,0,7.4,0,10.22,3.11,8.3,8,5.65,22.6,1.81,32.14a76.2,76.2,0,0,1-52,44.85A277.92,277.92,0,0,1,271.35,245.33ZM130,421.29c-2.49-1.58-5.65-4.07-5.65-7.46a9.09,9.09,0,0,1,4.29-7.12c12.37-6.5,26.61.34,38.69,3.73l2.15,1C159.61,420.11,144.19,426.94,130,421.29Z"/><path style="fill:#ed1b2f" transform="translate(-107 -213.66)" d="M176.28,553.82V514.27h12.26A14.18,14.18,0,0,1,198,517a10.05,10.05,0,0,1,3.22,8.13,9.77,9.77,0,0,1-1.36,5.2,7.74,7.74,0,0,1-3.67,3.16,7,7,0,0,1,4.12,3.11,10.11,10.11,0,0,1,1.47,5.65,11.3,11.3,0,0,1-3.16,8.7,13.11,13.11,0,0,1-9.21,3Zm8-23.16h4.18a4.24,4.24,0,0,0,4.69-4.86,5.65,5.65,0,0,0-1.07-3.9,4.69,4.69,0,0,0-3.56-1.19H184.3Zm0,5.65v10.62h5.14a4.12,4.12,0,0,0,3.28-1.36,5.65,5.65,0,0,0,1.07-3.78c0-3.56-1.24-5.65-3.84-5.65Z"/><path style="fill:#ed1b2f" transform="translate(-107 -213.66)" d="M233,553.82h-8V514.27h8Z"/><path style="fill:#ed1b2f" transform="translate(-107 -213.66)" d="M284.85,537.49a18.47,18.47,0,0,1-3.78,12.43,13,13,0,0,1-10.51,4.41A13.33,13.33,0,0,1,260,550a18.25,18.25,0,0,1-3.84-12.31v-6.78A19.6,19.6,0,0,1,260,518.06a12.94,12.94,0,0,1,10.51-4.58A13.16,13.16,0,0,1,281,518a19.09,19.09,0,0,1,3.84,12.71Zm-8-6.67A16.55,16.55,0,0,0,275.3,523a5.2,5.2,0,0,0-4.8-2.6,5.08,5.08,0,0,0-4.69,2.54,15.14,15.14,0,0,0-1.58,7.68v7.06a15.08,15.08,0,0,0,1.53,7.68,5.65,5.65,0,0,0,4.8,2.49,5.25,5.25,0,0,0,4.69-2.43,15,15,0,0,0,1.58-7.51Z"/><path style="fill:#231f20" transform="translate(-107 -213.66)" d="M324.45,543.36a4.91,4.91,0,0,0-1.24-3.67,13.5,13.5,0,0,0-4.52-2.6,21.35,21.35,0,0,1-8.3-5.31,10.56,10.56,0,0,1-2.6-7.17,10.05,10.05,0,0,1,3.56-8.08,13.39,13.39,0,0,1,9-3.05,13.84,13.84,0,0,1,6.55,1.53,11.3,11.3,0,0,1,4.41,4.35,13.39,13.39,0,0,1,1.53,6.44h-8.3a6.84,6.84,0,0,0-1.19-4.29,4.12,4.12,0,0,0-3.39-1.41,4.24,4.24,0,0,0-3.28,1.24,4.52,4.52,0,0,0-1.19,3.33,4.12,4.12,0,0,0,1.3,2.94,15.42,15.42,0,0,0,4.63,2.77,19.94,19.94,0,0,1,8.47,5.14,11.3,11.3,0,0,1,2.65,7.8,10.17,10.17,0,0,1-3.33,7.91,12.94,12.94,0,0,1-9,2.94,15.2,15.2,0,0,1-7-1.58,11.3,11.3,0,0,1-5-4.52,13.27,13.27,0,0,1-1.81-6.95h8.08a7.46,7.46,0,0,0,1.36,5,5.65,5.65,0,0,0,4.35,1.58c2.82.17,4.18-1.36,4.18-4.29Z"/><path style="fill:#231f20" transform="translate(-107 -213.66)" d="M366.87,531.9l6-17.85h8.7L371,539.35v14.46h-8.13V539.35L352.18,514h9Z"/><path style="fill:#231f20" transform="translate(-107 -213.66)" d="M418.67,543.36a4.91,4.91,0,0,0-1-3.45,13.5,13.5,0,0,0-4.52-2.6A21.35,21.35,0,0,1,404.6,532a10.56,10.56,0,0,1-2.6-7.17,10.05,10.05,0,0,1,3.56-8.08,14.8,14.8,0,0,1,15.53-1.53,11.3,11.3,0,0,1,4.46,4.35,13.39,13.39,0,0,1,1.53,6.44h-8.3a6.84,6.84,0,0,0-1.19-4.29,4.86,4.86,0,0,0-6.67,0,4.52,4.52,0,0,0-1.19,3.33A4.12,4.12,0,0,0,411,528a14.74,14.74,0,0,0,4.63,2.77,19.94,19.94,0,0,1,8.47,5.14,11.3,11.3,0,0,1,2.6,7.8,10.17,10.17,0,0,1-3.39,7.51,12.94,12.94,0,0,1-9,2.94,15,15,0,0,1-7-1.58,11.3,11.3,0,0,1-5-4.52,13.27,13.27,0,0,1-1.64-6.78h8.08a7.46,7.46,0,0,0,1.36,5,5.65,5.65,0,0,0,4.35,1.58C417.26,547.83,418.67,546.3,418.67,543.36Z"/><path style="fill:#231f20" transform="translate(-107 -213.66)" d="M474.87,520.71H465v33.1h-7.8v-33.1h-9.89V514h27.51Z"/><path style="fill:#231f20" transform="translate(-107 -213.66)" d="M517.13,536.59H504.59v10.56h14.8v6.67h-22.6V514.27h22.6v6.44h-14.8v9.38h12.54Z"/><path style="fill:#231f20" transform="translate(-107 -213.66)" d="M552.26,514l7.51,28.75L567.29,514h10.45v39.54h-8V543l.51-16.55-8,27.34h-5.65l-8-27.34.73,16.55v10.79H542V514.27Z"/><path style="fill:#231f20" transform="translate(-107 -213.66)" d="M617.9,543.36a5.14,5.14,0,0,0-1.24-3.67,14.86,14.86,0,0,0-4.52-2.6,21.24,21.24,0,0,1-8.64-5.31,10.85,10.85,0,0,1-2.6-7.17,10.05,10.05,0,0,1,3.56-8.08,13.44,13.44,0,0,1,9-3.05A13.67,13.67,0,0,1,620,515a10.9,10.9,0,0,1,4.41,4.35A13.39,13.39,0,0,1,626,525.8h-8a6.83,6.83,0,0,0-1.19-4.29,4.91,4.91,0,0,0-6.72,0,4.52,4.52,0,0,0-1.19,3.33,4.12,4.12,0,0,0,1.3,2.94,15.14,15.14,0,0,0,4.69,2.77,20.11,20.11,0,0,1,8.42,5.14,11.3,11.3,0,0,1,2.65,7.8,10.17,10.17,0,0,1-3.33,7.74,12.94,12.94,0,0,1-9,2.94,15.2,15.2,0,0,1-7-1.58,11.64,11.64,0,0,1-5-4.52,13.22,13.22,0,0,1-1.75-6.95h8a7.46,7.46,0,0,0,1.36,5,5.65,5.65,0,0,0,4.35,1.58C616.49,547.83,617.9,546.3,617.9,543.36Z"/></svg>