<svg xml:space="preserve" style="max-height: 500px" viewBox="15.648 157.784 608.9680000000001 322.088" y="0px" x="0px" xmlns:xlink="http://www.w3.org/1999/xlink" xmlns="http://www.w3.org/2000/svg" id="layer" version="1.1" width="608.9680000000001" height="322.088">
<style type="text/css">
	.st0{fill:#B7B9BA;}
	.st1{fill:#0083A8;}
</style>
<g>
	<path d="M508.7,182.6c0,0,23.5,9.3,44,27.1c16.5,14.3,52.4,52.7-6.6,122.2l17.8,27.5&#10;&#9;&#9;C602.3,326.9,678.3,222.4,508.7,182.6" class="st0"/>
	<path d="M252.4,199.6c-34,10.8-65.5,24.2-93,40.1c3.9-0.4,8-0.6,12.3-0.6c12.4,0,25,1.8,34.5,4.9l1.5,0.5&#10;&#9;&#9;c25.7-14.1,57.8-25.8,90-36.3c73.3-23.7,145.8-26.2,209.6-15.6C449.2,170.7,348.4,169.1,252.4,199.6" class="st0"/>
	<path d="M108.4,287.2l-93.9,88.9l14.3-4.3c0,0,57-41.5,88.1-59C111.9,306.6,108.6,298.4,108.4,287.2" class="st0"/>
</g>
<polygon points="487.6,317.4 455.3,264.5 490,264.5 508.7,301.2 527.9,264.5 560.5,264.5 527.9,317.4 563.7,376.1 &#10;&#9;528.2,376.1 506.6,335 485.2,376.1 451.5,376.1" class="st1"/>
<polygon points="368.8,264.5 447.4,264.5 447.4,285.6 398.5,285.6 398.5,308.6 444.7,308.6 444.7,329.7 398.5,329.7 &#10;&#9;398.5,355 449.2,355 449.2,376.1 368.8,376.1" class="st1"/>
<rect height="111.6" width="29.8" class="st1" y="264.5" x="322.7"/>
<g>
	<path d="M307,352.6c-6.5,2-13.7,3.3-20.7,3.3c-21.7,0-37.2-13.3-37.2-35.2c0-20.8,13.7-36.1,34.8-36.1&#10;&#9;&#9;c8.1,0,15.6,1.7,23.1,5V266c-8.1-2-16.3-3.4-24.7-3.4c-36.8,0-63.9,19.3-63.9,58.2c0,42.2,34.4,57.2,64.1,57.2&#10;&#9;&#9;c10.4,0,18-1.1,24.6-2.5V352.6z" class="st1"/>
	<path d="M155.5,377.3c-12.5,0-26.5-2-36.8-5.2l2.7-25.9c9.9,5.1,21.9,7.8,34.1,7.8c5.4,0,21.8,0,21.8-13.3&#10;&#9;&#9;c0-10.5-10.8-13.8-23.3-17.6c-17.2-5.2-36.7-11.1-36.7-37.3c0-34.3,38-38,54.3-38c11.4,0,23.2,1.7,31.7,4.4l-2,24.1&#10;&#9;&#9;c-8.1-3.5-17.6-5.4-27.3-5.4c-6.5,0-23.6,0-23.6,12.7c0,8.9,10.1,11.8,21.9,15.1c17,4.8,38.1,10.7,38.1,37.4&#10;&#9;&#9;C210.3,370.3,180.5,377.3,155.5,377.3" class="st1"/>
	<polygon points="129,439 119.7,439 119.7,435.7 142.3,435.7 142.3,439 133,439 133,466.7 129,466.7" class="st1"/>
	<path d="M147.5,433.1h3.9v9.2l-0.1,4.7c2.2-2.1,4.5-3.8,7.6-3.8c4.8,0,7,3.1,7,9v14.5H162v-14c0-4.3-1.3-6.1-4.3-6.1&#10;&#9;&#9;c-2.4,0-4,1.2-6.3,3.5v16.6h-3.9V433.1z" class="st1"/>
	<path d="M171.5,455.3c0-7.5,5.1-12.1,10.3-12.1c5.9,0,9.2,4.2,9.2,10.8c0,0.8,0,1.7-0.1,2.2h-15.5c0.3,4.9,3.3,8,7.7,8&#10;&#9;&#9;c2.2,0,4-0.7,5.7-1.8l1.4,2.6c-2,1.3-4.4,2.4-7.6,2.4C176.4,467.2,171.5,462.8,171.5,455.3 M187.6,453.4c0-4.6-2.1-7.1-5.7-7.1&#10;&#9;&#9;c-3.2,0-6.1,2.6-6.6,7.1H187.6z" class="st1"/>
	<path d="M206.4,435.7h8.8c6.9,0,11.6,2.3,11.6,9.1c0,6.5-4.6,9.6-11.4,9.6h-5.1v12.3h-3.9V435.7z M215,451.2&#10;&#9;&#9;c5.4,0,8-2,8-6.4c0-4.5-2.7-5.9-8.2-5.9h-4.4v12.3H215z" class="st1"/>
	<path d="M230,455.2c0-7.7,5-12.1,10.6-12.1c5.6,0,10.6,4.4,10.6,12.1c0,7.6-5,12-10.6,12&#10;&#9;&#9;C235,467.2,230,462.8,230,455.2 M247.2,455.2c0-5.3-2.6-8.9-6.6-8.9c-3.9,0-6.6,3.6-6.6,8.9c0,5.2,2.7,8.8,6.6,8.8&#10;&#9;&#9;C244.5,464,247.2,460.5,247.2,455.2" class="st1"/>
	<path d="M254.3,443.7h4l3.4,13.3c0.5,2.2,0.9,4.2,1.4,6.4h0.2c0.5-2.1,1-4.2,1.6-6.4l3.5-13.3h3.8l3.6,13.3&#10;&#9;&#9;c0.6,2.2,1.1,4.2,1.6,6.4h0.2c0.5-2.1,0.9-4.2,1.4-6.4l3.4-13.3h3.7l-6.1,22.9h-4.7l-3.3-12.3c-0.6-2.2-1-4.3-1.6-6.6H270&#10;&#9;&#9;c-0.5,2.3-1,4.5-1.6,6.7l-3.2,12.3h-4.5L254.3,443.7z" class="st1"/>
	<path d="M289.1,455.3c0-7.5,5.1-12.1,10.3-12.1c5.9,0,9.2,4.2,9.2,10.8c0,0.8,0,1.7-0.1,2.2h-15.5c0.3,4.9,3.3,8,7.7,8&#10;&#9;&#9;c2.2,0,4-0.7,5.7-1.8l1.4,2.6c-2,1.3-4.4,2.4-7.6,2.4C293.9,467.2,289.1,462.8,289.1,455.3 M305.1,453.4c0-4.6-2.1-7.1-5.7-7.1&#10;&#9;&#9;c-3.2,0-6.1,2.6-6.6,7.1H305.1z" class="st1"/>
	<path d="M314.2,443.7h3.2l0.3,4.2h0.1c1.6-2.9,3.9-4.7,6.5-4.7c1,0,1.7,0.1,2.5,0.5l-0.8,3.4c-0.8-0.2-1.3-0.4-2.2-0.4&#10;&#9;&#9;c-1.9,0-4.3,1.4-5.8,5.3v14.7h-3.9V443.7z" class="st1"/>
	<path d="M338.3,455.2c0-7.7,5-12.1,10.6-12.1c5.6,0,10.6,4.4,10.6,12.1c0,7.6-5,12-10.6,12&#10;&#9;&#9;C343.3,467.2,338.3,462.8,338.3,455.2 M355.5,455.2c0-5.3-2.6-8.9-6.6-8.9c-3.9,0-6.6,3.6-6.6,8.9c0,5.2,2.7,8.8,6.6,8.8&#10;&#9;&#9;C352.9,464,355.5,460.5,355.5,455.2" class="st1"/>
	<path d="M366.2,446.9h-3.1V444l3.1-0.2v-3.6c0-4.7,2.1-7.6,6.7-7.6c1.4,0,2.8,0.3,3.8,0.8l-0.8,3&#10;&#9;&#9;c-0.8-0.4-1.7-0.6-2.6-0.6c-2.2,0-3.2,1.5-3.2,4.4v3.6h4.9v3.2h-4.9v19.8h-3.9V446.9z" class="st1"/>
	<path d="M389.2,435.7h8.8c6.9,0,11.6,2.3,11.6,9.1c0,6.5-4.6,9.6-11.4,9.6h-5.1v12.3h-3.9V435.7z M397.7,451.2&#10;&#9;&#9;c5.4,0,8-2,8-6.4c0-4.5-2.7-5.9-8.2-5.9h-4.4v12.3H397.7z" class="st1"/>
	<path d="M415.5,443.7h3.2l0.3,4.2h0.1c1.6-2.9,3.9-4.7,6.5-4.7c1,0,1.7,0.1,2.5,0.5l-0.8,3.4c-0.8-0.2-1.3-0.4-2.2-0.4&#10;&#9;&#9;c-1.9,0-4.2,1.4-5.8,5.3v14.7h-3.9V443.7z" class="st1"/>
	<path d="M429.7,455.3c0-7.5,5.1-12.1,10.3-12.1c5.9,0,9.2,4.2,9.2,10.8c0,0.8,0,1.7-0.1,2.2h-15.5c0.3,4.9,3.3,8,7.7,8&#10;&#9;&#9;c2.2,0,4-0.7,5.7-1.8l1.4,2.6c-2,1.3-4.4,2.4-7.6,2.4C434.6,467.2,429.7,462.8,429.7,455.3 M445.8,453.4c0-4.6-2.1-7.1-5.7-7.1&#10;&#9;&#9;c-3.2,0-6.1,2.6-6.6,7.1H445.8z" class="st1"/>
	<path d="M453.1,455.2c0-7.7,5.1-12.1,11-12.1c3,0,5.1,1.2,6.7,2.7l-2,2.5c-1.3-1.2-2.7-2-4.6-2c-4.2,0-7.2,3.6-7.2,8.9&#10;&#9;&#9;c0,5.2,2.9,8.8,7.1,8.8c2.1,0,4-1,5.4-2.3l1.7,2.6c-2.1,1.8-4.7,2.9-7.4,2.9C457.8,467.2,453.1,462.8,453.1,455.2" class="st1"/>
	<path d="M475.7,436.5c0-1.5,1.2-2.5,2.7-2.5c1.5,0,2.7,1,2.7,2.5c0,1.5-1.2,2.5-2.7,2.5&#10;&#9;&#9;C476.8,439,475.7,438,475.7,436.5 M476.4,443.7h3.9v22.9h-3.9V443.7z" class="st1"/>
	<path d="M485.4,464.1l1.9-2.6c2,1.6,4,2.7,6.8,2.7c3,0,4.5-1.6,4.5-3.6c0-2.4-2.7-3.4-5.2-4.3&#10;&#9;&#9;c-3.3-1.2-6.8-2.7-6.8-6.6c0-3.7,2.9-6.5,7.9-6.5c2.9,0,5.4,1.2,7.1,2.6l-1.8,2.5c-1.6-1.2-3.2-2-5.2-2c-2.9,0-4.2,1.6-4.2,3.3&#10;&#9;&#9;c0,2.2,2.5,3,5.1,4c3.3,1.2,7,2.6,7,6.9c0,3.7-3,6.8-8.4,6.8C490.7,467.2,487.6,465.9,485.4,464.1" class="st1"/>
	<path d="M507.1,436.5c0-1.5,1.2-2.5,2.7-2.5c1.5,0,2.7,1,2.7,2.5c0,1.5-1.2,2.5-2.7,2.5&#10;&#9;&#9;C508.2,439,507.1,438,507.1,436.5 M507.8,443.7h3.9v22.9h-3.9V443.7z" class="st1"/>
	<path d="M517.7,455.2c0-7.7,5-12.1,10.6-12.1c5.6,0,10.6,4.4,10.6,12.1c0,7.6-5,12-10.6,12&#10;&#9;&#9;C522.7,467.2,517.7,462.8,517.7,455.2 M534.9,455.2c0-5.3-2.6-8.9-6.6-8.9c-3.9,0-6.6,3.6-6.6,8.9c0,5.2,2.7,8.8,6.6,8.8&#10;&#9;&#9;C532.3,464,534.9,460.5,534.9,455.2" class="st1"/>
	<path d="M545,443.7h3.2l0.3,3.3h0.1c2.2-2.2,4.5-3.9,7.7-3.9c4.8,0,7,3.1,7,9v14.5h-3.9v-14c0-4.3-1.3-6.1-4.3-6.1&#10;&#9;&#9;c-2.4,0-4,1.2-6.3,3.5v16.6H545V443.7z" class="st1"/>
</g>
</svg>